# xmcd CD database file
# Copyright (C) 1995 Ti Kan
#
# Track frame offsets:
#	150
#	4288
#	33923
#	70200
#	83128
#	100778
#	153833
#	188628
#	224550
#	246970
#	285093
#	304268
#
# Disc length: 4403 seconds
#
# Revision: 1
# Processed by: cddbd v1.4b41PL1 Copyright (c) Steve Scherf et al.
# Submitted via: NotifyCDPlayer(CDDB) 1.05
#
DISCID=9811310c
DTITLE=Jimi Hendrix - In Concert #1
DYEAR=1900
DGENRE=
TTITLE0=Introduction
TTITLE1=Killing Floor
TTITLE2=Spanish Castle Magic
TTITLE3=Fire
TTITLE4=Hey Joe
TTITLE5=Red House
TTITLE6=Sunshine of Your Love
TTITLE7=Catfish
TTITLE8=Foxy Lady
TTITLE9=Drivin' South
TTITLE10=Little Wing
TTITLE11=Purple Haze
EXTD=
EXTT0=
EXTT1=
EXTT2=
EXTT3=
EXTT4=
EXTT5=
EXTT6=
EXTT7=
EXTT8=
EXTT9=
EXTT10=
EXTT11=
PLAYORDER=
